<svg xmlns="http://www.w3.org/2000/svg" viewBox="0 0 52.47 47.15"><g id="Calque_2" data-name="Calque 2"><g id="Calque_2-2" data-name="Calque 2"><path d="M0,15.74V13.89s0-.1,0-.15c0-.36,0-.72,0-1.08a13.23,13.23,0,0,1,.25-2,10.82,10.82,0,0,1,.93-2.53A15.29,15.29,0,0,1,5.06,3.2,16.47,16.47,0,0,1,8.47,1.08a10.17,10.17,0,0,1,3.93-1,26.33,26.33,0,0,1,3.44,0A8.33,8.33,0,0,1,17.47.3a9.24,9.24,0,0,1,2,.81,14.16,14.16,0,0,1,5,4.2,7.75,7.75,0,0,1,1.49,3.08c0,.25.12.49.19.78l.12-.23.66-1.46a12.18,12.18,0,0,1,2.4-3.57A12.75,12.75,0,0,1,38.23,0a13.3,13.3,0,0,1,3.39.3,13.64,13.64,0,0,1,8.23,5.24,11.15,11.15,0,0,1,2,4.24A21.06,21.06,0,0,1,52.45,14c0,.51,0,1,0,1.52,0,.75-.06,1.5-.14,2.24a16.62,16.62,0,0,1-.56,3,19,19,0,0,1-2.06,4.48,25.07,25.07,0,0,1-3.5,4.32,52.12,52.12,0,0,1-4.68,4.11c-1.31,1-2.67,2-4,3a92.55,92.55,0,0,0-8.28,7.05c-.83.79-1.66,1.6-2.43,2.45a3.87,3.87,0,0,0-.65,1H26a.94.94,0,0,0-.14-.26A12.15,12.15,0,0,0,24,44.35c-.93-1-1.94-1.88-3-2.76-1.55-1.35-3.19-2.59-4.83-3.83-2-1.5-4-3-5.89-4.57a51.76,51.76,0,0,1-4.74-4.38,21.38,21.38,0,0,1-3.51-4.88,19.2,19.2,0,0,1-2-7.86,3,3,0,0,0,0-.31S0,15.72,0,15.74Z"/></g></g></svg>