<svg xmlns="http://www.w3.org/2000/svg" viewBox="0 0 41.11 41.11"><g id="Calque_2" data-name="Calque 2"><g id="Calque_2-2" data-name="Calque 2"><path d="M2.1,0H39l.14.05a2.27,2.27,0,0,1,2,2.3q0,18.21,0,36.42a2.32,2.32,0,0,1-.07.59,2.27,2.27,0,0,1-2.25,1.75H28.43V25.2h5a.42.42,0,0,0,.41-.36l.72-5.54c0-.33,0-.33-.29-.33H28.41V18.7c0-1.21,0-2.42,0-3.64,0-.31,0-.62.07-.94a2.26,2.26,0,0,1,1.71-1.95A7.18,7.18,0,0,1,31.5,12c1,0,2,0,3,0h.29V10.59c0-1.29,0-2.59,0-3.88,0-.21,0-.32-.28-.3a2.2,2.2,0,0,1-.36,0c-.83,0-1.66-.11-2.5-.14a14.78,14.78,0,0,0-4,.22,6.89,6.89,0,0,0-5.14,4.49A8.88,8.88,0,0,0,22,14c0,1.57,0,3.14,0,4.71a1.8,1.8,0,0,1,0,.22H16.81a.26.26,0,0,0-.25.26q0,2.87,0,5.73a.25.25,0,0,0,.25.25h5.12a1.34,1.34,0,0,1,0,.19c0,5.14,0,10.29,0,15.43a.28.28,0,0,1-.28.29H2.28a2.28,2.28,0,0,1-2.2-1.75c0-.11,0-.22-.08-.33V2.1a.49.49,0,0,0,.05-.16A2.27,2.27,0,0,1,1.83.06Z"/></g></g></svg>