<svg xmlns="http://www.w3.org/2000/svg" viewBox="0 0 43.6 45"><defs><style>.cls-1{fill:#eab200;}</style></defs><g id="Calque_2" data-name="Calque 2"><g id="Calque_1-2" data-name="Calque 1"><path class="cls-1" d="M6.07,0H6.2A7.25,7.25,0,0,0,7.33.21l7,1.2,6.54,1.13,7,1.19,6.26,1.08L40.87,6l2.73.46v.26s0,.06,0,.1l-1,6.09c0,.23-.07.46-.11.69s-.08.46-.12.75a3.42,3.42,0,0,0-1.94-2,7.18,7.18,0,0,0-4.94-.26,4.36,4.36,0,0,0-3.2,5,4,4,0,0,0,2.42,3.13,6.78,6.78,0,0,0,3.47.56A5.47,5.47,0,0,0,41,19.94c.2-.14.39-.3.59-.47a.56.56,0,0,1,0,.13c-.25,1.6-.5,3.2-.76,4.8-.32,2.08-.65,4.15-1,6.23s-.62,4-.94,6-.62,4-.94,6L37.53,45H37.4l-.14,0L31.82,44l-7.27-1.25L17,41.49l-7-1.2L3.2,39.12,0,38.58v-.13a1,1,0,0,0,0-.17c.13-.77.25-1.55.37-2.33.32-2,.63-4,1-6L2.29,24l1-6.25c.2-1.32.41-2.64.62-4,0-.14.07-.21.22-.2a3.11,3.11,0,0,0,.61,0c.22,0,.28.06.28.28q0,3.26,0,6.51c0,.19,0,.24.24.24.65,0,1.29,0,1.94,0,.2,0,.24-.06.24-.25,0-2.17,0-4.35,0-6.53,0-.2.06-.25.26-.25h3.45c.22,0,.28.05.28.28,0,2.18,0,4.35,0,6.53,0,.17,0,.22.21.22.72,0,1.43,0,2.14,0,.2,0,.24-.06.24-.25,0-1.45,0-2.91,0-4.36a2.16,2.16,0,0,1,.92-1.87,3.1,3.1,0,0,1,2.65-.39,2.15,2.15,0,0,1,1.78,2.32V20.4c0,.17,0,.23.21.23h2.21c.12,0,.17,0,.17-.16,0-1.74,0-3.47,0-5.2a3.11,3.11,0,0,0-2.1-3A6,6,0,0,0,16.17,12a4,4,0,0,0-2.27,1.2s0,0-.05,0V12.3c0-.31,0-.27-.29-.27H7.64c-.17,0-.22,0-.23-.22a1.6,1.6,0,0,1,.94-1.57,2.53,2.53,0,0,1,2.46.09,1.06,1.06,0,0,1,.68.83c0,.11.1.08.16.08H13.6c.14,0,.17-.05.16-.17a2.66,2.66,0,0,0-1.34-2.31,5,5,0,0,0-2.1-.61,6.3,6.3,0,0,0-3.1.32,3.27,3.27,0,0,0-2.17,2.42,4.42,4.42,0,0,0,0,1C5,12,5,12,4.84,12H4.33c-.12,0-.15,0-.13-.15s0-.29.07-.43ZM29.54,19.84c0,.24,0,.47,0,.7s.05.2.2.2h2.14c.15,0,.2,0,.2-.19,0-2,0-4,0-6a2.09,2.09,0,0,0-.63-1.51,3.93,3.93,0,0,0-1.75-.94,9.17,9.17,0,0,0-3.83-.21,5,5,0,0,0-2.11.71,2.51,2.51,0,0,0-1.22,1.89c0,.12,0,.18.12.18h2.67c.1,0,.14,0,.15-.14a1.29,1.29,0,0,1,1-1,4.46,4.46,0,0,1,1.82-.05,1.52,1.52,0,0,1,.55.2,1,1,0,0,1,.45.93.73.73,0,0,1-.57.67l-.31.1a18.49,18.49,0,0,1-2.34.3,8.71,8.71,0,0,0-2.36.49,2.2,2.2,0,0,0-1.44,1.42,2.3,2.3,0,0,0,1.12,2.77,3.41,3.41,0,0,0,.74.31A6.85,6.85,0,0,0,29.54,19.84Z"/><path class="cls-1" d="M37.57,13.58a2.83,2.83,0,0,1,1.15.21,1.54,1.54,0,0,1,.91,1.05c0,.18.13.22.3.22h2.12c.17,0,.21,0,.18.21-.11.62-.21,1.23-.29,1.85,0,.17-.08.23-.26.23H40a.2.2,0,0,0-.23.17,2,2,0,0,1-1.81,1.55,3.37,3.37,0,0,1-1,0,2,2,0,0,1-1.58-1.33,3.53,3.53,0,0,1,0-2.56A2.2,2.2,0,0,1,37.57,13.58Z"/><path class="cls-1" d="M29.64,16.61a2.35,2.35,0,0,1-2.08,2.61,3.66,3.66,0,0,1-1.58,0,1,1,0,0,1-.83-.74.86.86,0,0,1,.54-1.08,5.75,5.75,0,0,1,1.23-.27c.7-.1,1.41-.12,2.1-.26A2,2,0,0,0,29.64,16.61Z"/></g></g></svg>