<svg xmlns="http://www.w3.org/2000/svg" viewBox="0 0 70.74 10.34"><g id="Calque_2" data-name="Calque 2"><g id="Calque_1-2" data-name="Calque 1"><path d="M4.92,9.86A3.4,3.4,0,0,1,2,4.94,3.17,3.17,0,0,1,5.78,3.16,3.44,3.44,0,0,1,8.1,6.87,3.27,3.27,0,0,1,5.73,9.75a1,1,0,0,1-.23.07Z"/><path d="M21.82,3.78,21,4.65a2.64,2.64,0,0,0-2.93-.6,2.55,2.55,0,0,0-1.54,2.86A2.52,2.52,0,0,0,19,9a8.49,8.49,0,0,0,1.33-.17.34.34,0,0,0,.32-.4c0-.41,0-.82,0-1.28H19V6h2.91c0,1.13,0,2.21,0,3.3a.37.37,0,0,1-.16.26,4.59,4.59,0,0,1-5.31-.34,3.61,3.61,0,0,1-1.07-3.74A3.49,3.49,0,0,1,18,2.82a3.75,3.75,0,0,1,3.71.81A1.16,1.16,0,0,1,21.82,3.78Z"/><path d="M46.46,10.06c-1.32.08-1.34.09-1.76-1.11a.66.66,0,0,0-.78-.53,15,15,0,0,1-2,0,.6.6,0,0,0-.69.5,5.85,5.85,0,0,1-.34.91.53.53,0,0,1-.34.25c-.34,0-.68,0-1.08,0,.24-.63.46-1.23.69-1.82q1-2.55,2-5.11a.48.48,0,0,1,.56-.37c1,0,1,0,1.34.91ZM44,7.26l-1.09-3-1.09,3Z"/><path d="M30.93,10.06c-1.33.06-1.35.07-1.74-1.11-.14-.4-.31-.56-.75-.54-.73.05-1.47,0-2.21,0a.38.38,0,0,0-.44.31c-.11.35-.27.69-.37,1a.4.4,0,0,1-.48.31c-.31,0-.62,0-1,0,.39-1,.77-2,1.14-3,.52-1.34,1-2.67,1.53-4a.43.43,0,0,1,.48-.32c1,0,1.05,0,1.43,1l2.28,6C30.85,9.84,30.89,9.94,30.93,10.06Zm-2.4-2.83-1.09-3-1.09,3Z"/><path d="M57.27,2.8h1.21v.49c0,1.42,0,2.84,0,4.26a1.38,1.38,0,0,0,.83,1.36A1.64,1.64,0,0,0,61,8.72a1.73,1.73,0,0,0,.58-1.47c0-1.33,0-2.65,0-4V2.81h1.2a2.51,2.51,0,0,1,0,.27c0,1.5,0,3,0,4.51a2.51,2.51,0,0,1-1.94,2.52,2.88,2.88,0,0,1-3.21-1,3.11,3.11,0,0,1-.44-1.38c-.06-1.56,0-3.11,0-4.67A1.15,1.15,0,0,1,57.27,2.8Z"/><path d="M54.37,2.79,52.89,5.12c-.25.41-.69.81-.7,1.22s.43.79.67,1.18l1.62,2.56c-.5,0-.93,0-1.35,0-.1,0-.22-.14-.28-.24-.51-.81-1-1.63-1.53-2.5l-.7,1.13c-.14.22-.27.45-.4.67-.64,1.06-.64,1.06-2,.92l1.37-2.18c.27-.43.53-.86.82-1.28a.42.42,0,0,0,0-.55c-.69-1-1.36-2.1-2.09-3.24.51,0,1,0,1.39,0,.09,0,.19.16.26.27l1.38,2.26c.14-.21.27-.4.38-.59.36-.58.71-1.17,1.08-1.74a.56.56,0,0,1,.38-.21C53.56,2.77,53.92,2.79,54.37,2.79Z"/><path d="M69.65,4.82c-.54-.88-1-1.12-1.79-.91a.81.81,0,0,0-.67.64.75.75,0,0,0,.43.85c.4.2.82.38,1.22.57s.58.26.85.41a1.9,1.9,0,0,1,1,2A1.86,1.86,0,0,1,69.49,10a2.88,2.88,0,0,1-3.38-.78c-.14-.21-.24-.45-.39-.73l1-.46a6.78,6.78,0,0,0,.94.87,1.3,1.3,0,0,0,1.37,0,.75.75,0,0,0,.12-1.29A8.53,8.53,0,0,0,68,7c-.36-.18-.75-.33-1.1-.54a1.92,1.92,0,0,1-1-2,1.94,1.94,0,0,1,1.61-1.65,2.57,2.57,0,0,1,3.2,1.58Z"/><path d="M34.54,8.9h3.11v1.15H33.34V2.81h1.2Z"/><path d="M5.87,2.51c-.62,0-1.24.05-1.86.11-.28,0-.31-.1-.31-.33s0-.61,0-.91A.73.73,0,0,1,3.81,1c.28-.29.6-.54.89-.83S5,0,5.18.14,5.76.67,6,1a.8.8,0,0,1,.15.44c0,.29,0,.58,0,.87s0,.38-.27.35Z"/><path d="M8.36,4.71,7.49,3.48a3.25,3.25,0,0,1,2-.62c.08,0,.25.18.25.26a4.45,4.45,0,0,1-.21,1.11.92.92,0,0,1-.53.37A3,3,0,0,1,8.36,4.71Z"/><path d="M2.32,3.48,1.46,4.7a5.09,5.09,0,0,1-.83-.13A.8.8,0,0,1,.2,4.19,4.22,4.22,0,0,1,0,3.32c-.06-.38.1-.53.48-.48A3.8,3.8,0,0,1,2.32,3.48Z"/><path d="M8.39,8.1a2.33,2.33,0,0,1,1.14,2,.38.38,0,0,1-.23.25,3.81,3.81,0,0,1-1-.05.78.78,0,0,1-.45-1.34C8,8.68,8.19,8.39,8.39,8.1Z"/><path d="M1.41,8.05l.75,1.08a.79.79,0,0,1-.33,1,5.66,5.66,0,0,1-1.31.15c-.06,0-.21-.19-.2-.28A2.32,2.32,0,0,1,1.41,8.05Z"/></g></g></svg>