<svg xmlns="http://www.w3.org/2000/svg" viewBox="0 0 41.81 41.81"><g id="Calque_2" data-name="Calque 2"><g id="Calque_2-2" data-name="Calque 2"><path d="M41.5,31.56A17.9,17.9,0,0,1,41,33.84a10.87,10.87,0,0,1-1.77,3.43,10.75,10.75,0,0,1-5.09,3.61,14.84,14.84,0,0,1-3.67.73c-1.95.15-3.9.17-5.85.19-3.09,0-6.17,0-9.26,0-1.26,0-2.52-.05-3.77-.14a14.83,14.83,0,0,1-4.6-1,9.16,9.16,0,0,1-1.62-.83A10.85,10.85,0,0,1,.86,34a15.38,15.38,0,0,1-.67-3.49C0,27.68,0,24.88,0,22.09c0-1.59,0-3.19,0-4.78C0,15.55,0,13.79.14,12A14.48,14.48,0,0,1,1.27,6.8a10.5,10.5,0,0,1,6-5.74A14,14,0,0,1,11.36.18C13.3,0,15.23,0,17.17,0h7.14c1.82,0,3.63,0,5.44.13a15,15,0,0,1,5,1,10.54,10.54,0,0,1,6.19,6.7,14.37,14.37,0,0,1,.68,3.5c.19,2.6.18,5.2.19,7.81,0,2.39,0,4.79,0,7.18,0,1.39-.06,2.77-.17,4.15C41.59,30.86,41.54,31.21,41.5,31.56ZM3.79,16s0,.06,0,.08c0,3.77,0,7.53,0,11.3A31.53,31.53,0,0,0,4,30.75a10.05,10.05,0,0,0,.58,2.42A6.79,6.79,0,0,0,8.17,37a10.68,10.68,0,0,0,3.86.86c1.35.09,2.7.13,4.06.14q4.14,0,8.28,0c2,0,4,0,6.05-.2a9.76,9.76,0,0,0,2.77-.62,6.79,6.79,0,0,0,4-4,11.62,11.62,0,0,0,.71-3.7C38,27.78,38,26,38,24.28V23s0-.08,0-.12c0-3.52.05-7-.13-10.56a12.76,12.76,0,0,0-.58-3.41,6.82,6.82,0,0,0-3.69-4.14A10.21,10.21,0,0,0,30,3.92c-1.21-.08-2.43-.13-3.64-.13q-3.71,0-7.41,0c-2.38,0-4.76,0-7.14.16a11.07,11.07,0,0,0-3.21.67A6.77,6.77,0,0,0,5.13,7.5,8.86,8.86,0,0,0,4,11.05c-.09.76-.12,1.52-.15,2.28S3.79,15.12,3.79,16Z"/><path d="M12.18,14.61a4.22,4.22,0,0,0,.38-.46A10.58,10.58,0,0,1,19,10.33,10.71,10.71,0,0,1,30.65,16.4l.05.08c.12.31.24.61.35.92A10.75,10.75,0,0,1,27,29.74,10.48,10.48,0,0,1,21.7,31.6a10.68,10.68,0,0,1-11.18-8,10.49,10.49,0,0,1,1.26-8.33ZM27.87,20.9a7,7,0,1,0-7,7A7,7,0,0,0,27.87,20.9Z"/><path d="M34.57,9.75a2.51,2.51,0,1,1-2.48-2.52A2.51,2.51,0,0,1,34.57,9.75Z"/></g></g></svg>