<svg xmlns="http://www.w3.org/2000/svg" viewBox="0 0 69.04 24.41"><defs><style>.cls-1{fill:#ec1d25;}.cls-2{fill:#252122;}</style></defs><g id="Calque_2" data-name="Calque 2"><g id="Calque_1-2" data-name="Calque 1"><path class="cls-1" d="M34.53,19.75H68.69c.27,0,.35,0,.35.33,0,1.33,0,2.67,0,4,0,.26-.07.32-.33.32q-12.93,0-25.87,0-21.24,0-42.48,0c-.27,0-.36,0-.36-.34q0-2,0-4c0-.24.06-.3.31-.3Z"/><path class="cls-1" d="M8.15,10.14q0-4.26,0-8.51c0-.24,0-.32.3-.31a9.46,9.46,0,0,1,8.57,6,7.87,7.87,0,0,1-.82,7.26A9.41,9.41,0,0,1,8.43,19c-.25,0-.29-.07-.29-.3C8.15,15.87,8.15,13,8.15,10.14Z"/><path class="cls-1" d="M7.49,13.87c0,1.63,0,3.26,0,4.89,0,.23-.07.27-.28.27-2.31,0-4.63,0-6.94,0C.06,19,0,19,0,18.75c0-3.27,0-6.55,0-9.82,0-.23.06-.28.28-.28H7.22c.23,0,.28.07.28.28C7.49,10.58,7.49,12.23,7.49,13.87Z"/><path class="cls-2" d="M18.1,14.91V11c0-.12-.05-.26.18-.26,1.52,0,3-.06,4.55,0A4.2,4.2,0,0,1,26.56,16a4,4,0,0,1-2.19,2.79,3.36,3.36,0,0,1-1.47.29H18.37c-.22,0-.28-.05-.27-.27C18.11,17.53,18.1,16.22,18.1,14.91Zm3,0v1.4c0,.63,0,.62.65.64A1.68,1.68,0,0,0,23,16.51a2.36,2.36,0,0,0,.05-3.12,2,2,0,0,0-1.73-.52c-.19,0-.26.06-.25.26C21.12,13.73,21.11,14.33,21.11,14.93Z"/><path class="cls-1" d="M34.52,0H68.66c.12,0,.31-.08.35.06a2.07,2.07,0,0,1,0,.61c0,.06-.07.06-.12.06H.38C.26.74.07.82,0,.68A2.07,2.07,0,0,1,0,.07S.09,0,.14,0H34.52Z"/><path class="cls-1" d="M7.4,4.81A3.65,3.65,0,1,1,3.77,1.16,3.65,3.65,0,0,1,7.4,4.81Z"/><path class="cls-2" d="M53.26,18.28a3.14,3.14,0,0,1-1.73,1,2.26,2.26,0,0,1-2.71-1.53,2.9,2.9,0,0,1-.07-.66c0-1.42,0-2.83,0-4.24,0-.23.06-.29.28-.28h2.19c.24,0,.32,0,.32.3,0,1.14,0,2.29,0,3.43a.69.69,0,0,0,.28.66A.81.81,0,0,0,53,16.33c0-1.16,0-2.32,0-3.48,0-.24.08-.3.3-.29h2.22c.19,0,.24,0,.23.24v3.9c0,.27-.08.62.37.64.09,0,.06.11.06.17V19c0,.1,0,.19-.13.18A8.27,8.27,0,0,1,54.21,19,1.37,1.37,0,0,1,53.26,18.28Z"/><path class="cls-2" d="M24.24,4.27a2.52,2.52,0,0,1,2.67-.75,2,2,0,0,1,1.48,1.81c0,1.49,0,3,0,4.46,0,.14-.05.18-.18.17H26c-.19,0-.18-.11-.18-.24,0-1,0-2.07,0-3.11,0-.12,0-.25,0-.37a.65.65,0,0,0-1.1-.45,1.2,1.2,0,0,0-.54,1c.05,1,0,1.92,0,2.89,0,.18,0,.24-.23.24H21.84c-.18,0-.22-.06-.22-.23V3.68c0-.17,0-.23.22-.23.73,0,1.46,0,2.19,0,.18,0,.22.06.21.23S24.24,4,24.24,4.27Z"/><path class="cls-2" d="M59,13.34c.13,0,.17-.09.23-.15a2.47,2.47,0,0,1,2.38-.55,2,2,0,0,1,1.56,2c0,1.42,0,2.85,0,4.27,0,.13,0,.18-.18.18H60.8c-.2,0-.15-.13-.15-.24,0-1.05,0-2.1,0-3.15a2.11,2.11,0,0,0,0-.36A.65.65,0,0,0,59.51,15,1.19,1.19,0,0,0,59,16c0,1,0,1.93,0,2.89,0,.2,0,.26-.25.25h-2.1c-.19,0-.23-.06-.23-.23v-6c0-.19,0-.24.23-.23.71,0,1.42,0,2.13,0,.23,0,.27.08.25.27S59,13.18,59,13.34Z"/><path class="cls-2" d="M44.83,19.26a3.89,3.89,0,0,1-2.75-1.06,3.13,3.13,0,0,1,.13-4.77,4.09,4.09,0,0,1,5.26,0,3.19,3.19,0,0,1-.6,5.26A4,4,0,0,1,44.83,19.26Zm-1.07-3.33a1.12,1.12,0,0,0,1.32,1.18,1.28,1.28,0,0,0,0-2.41A1.14,1.14,0,0,0,43.76,15.93Z"/><path class="cls-2" d="M40.76,7.84c0,.54,0,1.06,0,1.58,0,.19-.14.21-.25.25a6.31,6.31,0,0,1-3.38.4A3,3,0,0,1,34.92,8.7a3.87,3.87,0,0,1-.49-2.43A3.51,3.51,0,0,1,34.79,5a2.92,2.92,0,0,1,2.4-1.62,4.12,4.12,0,0,1,1.4.08,2.86,2.86,0,0,1,2.17,2.42,5.9,5.9,0,0,1,.11,1c0,.19,0,.23-.23.23H37.25c-.24,0-.29.07-.24.29a1.19,1.19,0,0,0,1.08.91A4.58,4.58,0,0,0,40,8.09C40.23,8,40.49,7.93,40.76,7.84ZM37.64,6h.53c.11,0,.17,0,.18-.15A.82.82,0,0,0,37.8,5a.7.7,0,0,0-.79.56c-.12.38-.1.41.29.41Z"/><path class="cls-2" d="M34.26,7.42c0,.69,0,1.31,0,1.94a.2.2,0,0,1-.12.2,3.86,3.86,0,0,1-3.29.37,2,2,0,0,1-1.39-2c0-.82,0-1.64,0-2.47,0-.2,0-.26-.25-.24s-.52.07-.65,0,0-.44-.05-.67a.79.79,0,0,1,.37-.8c.86-.69,1.7-1.41,2.53-2.13.24-.21.5-.11.75-.12.09,0,0,.12,0,.19,0,.54,0,1.08,0,1.63,0,.15,0,.21.2.2.49,0,1,0,1.47,0,.17,0,.24,0,.24.22q0,.63,0,1.26c0,.2-.07.24-.24.23H32.4c-.16,0-.21,0-.21.2,0,.64,0,1.28,0,1.91a.52.52,0,0,0,.39.54,1.6,1.6,0,0,0,1.1-.06A2.23,2.23,0,0,0,34.26,7.42Z"/><path class="cls-2" d="M69,16.62v1.92a.2.2,0,0,1-.12.2,3.8,3.8,0,0,1-3.39.33,1.92,1.92,0,0,1-1.28-1.92V14.62c0-.18,0-.24-.23-.24s-.54.11-.67,0,0-.47-.05-.71a.76.76,0,0,1,.34-.75q1.27-1,2.49-2.1a1,1,0,0,1,.79-.17c.13,0,.09.11.09.19,0,.53,0,1.07,0,1.6,0,.2.07.25.26.24h1.4c.17,0,.25,0,.24.23,0,.42,0,.84,0,1.27,0,.17,0,.22-.21.22-.5,0-1,0-1.49,0-.18,0-.24,0-.24.23,0,.62,0,1.25,0,1.88a.5.5,0,0,0,.4.53,1.73,1.73,0,0,0,1.45-.22Z"/><path class="cls-2" d="M40.92,15.14a2.54,2.54,0,0,0-1.78-.39,1.22,1.22,0,0,0-1.07.74,1.13,1.13,0,0,0,.55,1.39,2.2,2.2,0,0,0,2,.05l.3-.13v1.58c0,.62,0,.61-.63.75a4.72,4.72,0,0,1-3-.21,3.09,3.09,0,0,1-2-3.34,3.31,3.31,0,0,1,3.09-3,4.84,4.84,0,0,1,2.3.2.24.24,0,0,1,.2.28C40.91,13.72,40.92,14.4,40.92,15.14Z"/><path class="cls-2" d="M35,15a3.83,3.83,0,0,0-1.08-.59,4.42,4.42,0,0,0-.48-.15c-.27-.05-.56.07-.61.25s.11.41.31.53a3.73,3.73,0,0,0,.4.2,3.69,3.69,0,0,1,1.35,1,1.71,1.71,0,0,1-.58,2.64,3,3,0,0,1-1.1.31,6.65,6.65,0,0,1-2.8-.27.35.35,0,0,1-.29-.41c0-.58,0-1.16,0-1.76.29.17.55.34.82.48a2.35,2.35,0,0,0,1.1.3c.19,0,.39,0,.46-.24s-.09-.35-.25-.45c-.36-.21-.74-.4-1.1-.62a2,2,0,0,1-1-1.83,1.62,1.62,0,0,1,.63-1.29,3.27,3.27,0,0,1,2.44-.6,3.16,3.16,0,0,1,1.59.57.43.43,0,0,1,.18.38C35,14,35,14.45,35,15Z"/><path class="cls-2" d="M21.09,5.79c0,1.31,0,2.62,0,3.93,0,.2-.05.25-.25.25H18.4c-.2,0-.28,0-.27-.26V1.82c0-.2.06-.25.25-.24.81,0,1.61,0,2.42,0,.22,0,.29.05.29.29C21.08,3.17,21.09,4.48,21.09,5.79Z"/><path class="cls-2" d="M43.71,4.52c.22-.27.37-.5.55-.7a1.7,1.7,0,0,1,2.17-.2.58.58,0,0,1,.26.57c-.07.67-.1,1.36-.14,2.06a4.33,4.33,0,0,0-1-.35c-.79-.19-1.74.82-1.71,1.5s0,1.53,0,2.3c0,.2,0,.27-.25.27-.72,0-1.45,0-2.17,0-.17,0-.24,0-.24-.23,0-2,0-4,0-6.07,0-.17.05-.22.22-.21.7,0,1.41,0,2.11,0,.2,0,.23.08.23.25S43.71,4.2,43.71,4.52Z"/><path class="cls-2" d="M29.76,15.87c0,1,0,2,0,3,0,.18-.05.24-.23.23H27.25c-.18,0-.22-.06-.21-.22v-6c0-.16,0-.21.2-.2h2.3c.18,0,.22,0,.22.22C29.75,13.87,29.76,14.87,29.76,15.87Z"/><path class="cls-2" d="M29.35,11.48a1,1,0,0,1-.94,1,1,1,0,0,1-1-1,1,1,0,0,1,1.91,0Z"/></g></g></svg>