<svg xmlns="http://www.w3.org/2000/svg" viewBox="0 0 104.1 45.54"><g id="Calque_2" data-name="Calque 2"><g id="Calque_2-2" data-name="Calque 2"><path d="M16,10H18l8.7,19.51H23.84l-2.59-5.75H13l-2.43,5.75H7.7Zm4.08,11.29-3.13-7-2.9,7Z"/><path d="M43.81,10.13H46.4v19.4H43.61V14.44l-6,7.5h-.51l-6-7.5V29.53H28.32V10.13H31l6.45,8Z"/><path d="M56.3,29.53H49.73V10.13h5.08a8.8,8.8,0,0,1,3.75.65,4.8,4.8,0,0,1,2.06,1.77,4.87,4.87,0,0,1,.71,2.62,4.24,4.24,0,0,1-3,4.1A6,6,0,0,1,61.75,21,4.55,4.55,0,0,1,63,24.24a4.71,4.71,0,0,1-.77,2.65A5.59,5.59,0,0,1,60,28.8,8.3,8.3,0,0,1,56.3,29.53ZM54.9,12.6H52.51v5.84h1.85a4.68,4.68,0,0,0,3.15-.85,2.82,2.82,0,0,0,.94-2.2Q58.45,12.6,54.9,12.6Zm.21,8.31h-2.6v6.15h2.73a9.09,9.09,0,0,0,3.09-.35,3,3,0,0,0,1.31-1.11A2.87,2.87,0,0,0,60.13,24a2.72,2.72,0,0,0-.52-1.62,3,3,0,0,0-1.48-1.1A9.28,9.28,0,0,0,55.11,20.91Z"/><path d="M65.6,10.13h11V12.6H68.38v5.92h7.94V21H68.38v6h8.48V29.5H65.6Z"/><path d="M80.47,29.53V10.13h4.86A7,7,0,0,1,90,11.59a4.9,4.9,0,0,1,1.73,3.94,5.08,5.08,0,0,1-.85,2.93,6.17,6.17,0,0,1-2.27,2l4.91,9.05h-3.3l-4.32-8.44H83.25v8.44Zm3.61-17h-.83v6.13h1.06a7.84,7.84,0,0,0,2.89-.36,2.77,2.77,0,0,0,1.22-1.1,3,3,0,0,0,.44-1.65,2.89,2.89,0,0,0-.49-1.66,2.56,2.56,0,0,0-1.36-1A9.68,9.68,0,0,0,84.08,12.49Z"/><path d="M47,33.39v2.94H46.2V34.08a1.78,1.78,0,0,0-.18-.94.7.7,0,0,0-.63-.27.93.93,0,0,0-.46.12,2.44,2.44,0,0,0-.47.4v2.94h-.8v-4h.8v.53a1.72,1.72,0,0,1,1.19-.61,1.32,1.32,0,0,1,1.2.73,1.76,1.76,0,0,1,1.34-.74,1.24,1.24,0,0,1,1,.43,2,2,0,0,1,.38,1.31v2.39h-.8v-2.4a1.24,1.24,0,0,0-.21-.77.71.71,0,0,0-.59-.27A1.23,1.23,0,0,0,47,33.39Z"/><path d="M52.69,32.28a2.12,2.12,0,0,1,1.53.59,2,2,0,0,1,.61,1.5,1.87,1.87,0,0,1-.62,1.45,2.17,2.17,0,0,1-1.56.58,2.09,2.09,0,0,1-1.52-.59,1.93,1.93,0,0,1-.61-1.46,2,2,0,0,1,.62-1.48A2.13,2.13,0,0,1,52.69,32.28Zm0,.72a1.24,1.24,0,0,0-.94.38,1.3,1.3,0,0,0-.37,1,1.28,1.28,0,0,0,.38.95,1.47,1.47,0,0,0,1.94,0,1.38,1.38,0,0,0,0-1.9A1.33,1.33,0,0,0,52.64,33Z"/><path d="M58.32,32.29h.87L57.4,36.4h-.27L55.3,32.29h.87l1.1,2.48Z"/><path d="M60.31,30.58a.46.46,0,0,1,.34.14.42.42,0,0,1,.14.33.45.45,0,0,1-.14.34.46.46,0,0,1-.34.14.45.45,0,0,1-.32-.14.49.49,0,0,1-.14-.34.45.45,0,0,1,.14-.32A.42.42,0,0,1,60.31,30.58Zm-.39,1.71h.8v4h-.8Z"/><path d="M62.79,32.29v.51A1.6,1.6,0,0,1,64,32.21a1.32,1.32,0,0,1,.7.19,1.24,1.24,0,0,1,.5.54A2.63,2.63,0,0,1,65.38,34v2.31h-.8V34a1.55,1.55,0,0,0-.19-.89.72.72,0,0,0-.63-.27,1.17,1.17,0,0,0-1,.57v2.89H62v-4Z"/><path d="M66.41,33.68a1.22,1.22,0,0,1,.47-1,2,2,0,0,1,1.29-.37h1.67v.62H69a1.62,1.62,0,0,1,.33.44,1.06,1.06,0,0,1,.09.45,1.3,1.3,0,0,1-.64,1.09,2.7,2.7,0,0,1-.93.26c-.31.05-.46.15-.46.31a.28.28,0,0,0,.17.24,2.67,2.67,0,0,0,.62.18,6.81,6.81,0,0,1,1,.26,1.4,1.4,0,0,1,.39.26,1,1,0,0,1,.29.73,1.05,1.05,0,0,1-.51.92,2.44,2.44,0,0,1-1.37.34,2.49,2.49,0,0,1-1.39-.34,1.07,1.07,0,0,1-.51-.93c0-.55.33-.9,1-1.06-.27-.17-.4-.34-.4-.51a.47.47,0,0,1,.17-.35A1,1,0,0,1,67.3,35,1.32,1.32,0,0,1,66.41,33.68Zm1.31,2.84a1.2,1.2,0,0,0-.66.17.52.52,0,0,0-.26.44c0,.42.38.63,1.13.63a1.8,1.8,0,0,0,.82-.16.47.47,0,0,0,.29-.44c0-.19-.12-.34-.36-.46A2.22,2.22,0,0,0,67.72,36.52ZM67.91,33a.74.74,0,0,0-.55.22.68.68,0,0,0-.23.53.64.64,0,0,0,.22.51.87.87,0,0,0,1.13,0,.65.65,0,0,0,.23-.52.7.7,0,0,0-.23-.53A.8.8,0,0,0,67.91,33Z"/><path d="M76.51,33.39v2.94H75.7V34.08a1.78,1.78,0,0,0-.18-.94.7.7,0,0,0-.63-.27.87.87,0,0,0-.45.12,2.19,2.19,0,0,0-.48.4v2.94h-.8v-4H74v.53a1.72,1.72,0,0,1,1.19-.61,1.32,1.32,0,0,1,1.2.73,1.76,1.76,0,0,1,1.34-.74,1.24,1.24,0,0,1,1,.43A2,2,0,0,1,79,33.94v2.39h-.8v-2.4a1.24,1.24,0,0,0-.21-.77.71.71,0,0,0-.59-.27A1.25,1.25,0,0,0,76.51,33.39Z"/><path d="M82.83,36.33v-.52a1.9,1.9,0,0,1-.58.44,1.58,1.58,0,0,1-.66.15,1.32,1.32,0,0,1-.7-.19,1.23,1.23,0,0,1-.49-.52,2.62,2.62,0,0,1-.16-1.09V32.29H81v2.3a1.6,1.6,0,0,0,.18.89.72.72,0,0,0,.64.25,1.16,1.16,0,0,0,1-.56V32.29h.8v4Z"/><path d="M84.68,36v-.86a2.93,2.93,0,0,0,.69.38,1.55,1.55,0,0,0,.59.15.78.78,0,0,0,.44-.12.35.35,0,0,0,.18-.3.4.4,0,0,0-.12-.29,3.08,3.08,0,0,0-.5-.34,3.51,3.51,0,0,1-1-.73,1.08,1.08,0,0,1-.24-.67.92.92,0,0,1,.37-.76,1.4,1.4,0,0,1,.93-.29,2.6,2.6,0,0,1,1.22.33v.79a2.44,2.44,0,0,0-1.17-.43.6.6,0,0,0-.37.1.3.3,0,0,0-.15.26.39.39,0,0,0,.13.27,2.1,2.1,0,0,0,.46.31l.28.16c.68.38,1,.8,1,1.27a1,1,0,0,1-.39.81,1.5,1.5,0,0,1-1,.32,2.18,2.18,0,0,1-.65-.08A4,4,0,0,1,84.68,36Z"/><path d="M88.87,30.58a.49.49,0,0,1,.34.14.45.45,0,0,1,.14.33.48.48,0,0,1-.48.48.49.49,0,0,1-.33-.14.49.49,0,0,1-.14-.34.45.45,0,0,1,.14-.32A.46.46,0,0,1,88.87,30.58Zm-.4,1.71h.8v4h-.8Z"/><path d="M93.58,35.39v.79a3.32,3.32,0,0,1-1.18.22,1.94,1.94,0,0,1-2.08-2.07,2.18,2.18,0,0,1,.55-1.54,1.9,1.9,0,0,1,1.45-.58,2.4,2.4,0,0,1,.56.06,3.3,3.3,0,0,1,.61.22v.85A2.1,2.1,0,0,0,92.37,33a1.16,1.16,0,0,0-.89.38,1.41,1.41,0,0,0-.35,1,1.31,1.31,0,0,0,.38,1,1.4,1.4,0,0,0,1,.36A2.77,2.77,0,0,0,93.58,35.39Z"/><path d="M103.41.69V44.86H.69V.69H103.41M104.1,0H0V45.54H104.1V0Z"/></g></g></svg>