<svg xmlns="http://www.w3.org/2000/svg" viewBox="0 0 113.7 49.74"><defs><style>.cls-1{fill:#fff;}</style></defs><g id="Calque_2" data-name="Calque 2"><g id="Calque_2-2" data-name="Calque 2"><path class="cls-1" d="M17.51,10.94h2.13l9.5,21.31H26L23.21,26h-9l-2.65,6.28H8.41ZM22,23.27,18.55,15.6l-3.17,7.67Z"/><path class="cls-1" d="M47.85,11.07h2.83V32.25h-3V15.77L41.12,24h-.56L34,15.77V32.25h-3V11.07h2.87l7,8.7Z"/><path class="cls-1" d="M61.49,32.25H54.32V11.07h5.55a9.64,9.64,0,0,1,4.09.7,5,5,0,0,1,3,4.8,4.63,4.63,0,0,1-3.23,4.48A6.5,6.5,0,0,1,67.44,23a5,5,0,0,1,1.38,3.51,5.14,5.14,0,0,1-.84,2.9,6,6,0,0,1-2.45,2.08A9,9,0,0,1,61.49,32.25ZM60,13.76H57.35v6.38h2a5.12,5.12,0,0,0,3.45-.93,3.1,3.1,0,0,0,1-2.4Q63.84,13.77,60,13.76Zm.23,9.07H57.35v6.72h3a9.94,9.94,0,0,0,3.37-.38A3.23,3.23,0,0,0,65.14,28a3.12,3.12,0,0,0,.54-1.76,3,3,0,0,0-.57-1.77,3.34,3.34,0,0,0-1.62-1.2A10.16,10.16,0,0,0,60.19,22.83Z"/><path class="cls-1" d="M71.65,11.07h12v2.69h-9v6.47h8.68v2.71H74.68v6.58H84v2.7H71.65Z"/><path class="cls-1" d="M87.89,32.25V11.07H93.2a7.67,7.67,0,0,1,5.1,1.59A5.34,5.34,0,0,1,100.19,17a5.58,5.58,0,0,1-.92,3.2,6.68,6.68,0,0,1-2.48,2.19l5.37,9.89H98.55L93.83,23h-2.9v9.22Zm4-18.61h-.91v6.69h1.15a8.65,8.65,0,0,0,3.16-.39,2.9,2.9,0,0,0,1.33-1.19,3.46,3.46,0,0,0,.48-1.82,3.2,3.2,0,0,0-.53-1.81A2.81,2.81,0,0,0,95,14,10.81,10.81,0,0,0,91.84,13.64Z"/><path class="cls-1" d="M51.34,36.47v3.21h-.88V37.22a1.93,1.93,0,0,0-.19-1,.77.77,0,0,0-.69-.29,1.06,1.06,0,0,0-.5.12,2.09,2.09,0,0,0-.52.44v3.21h-.88V35.26h.88v.58a1.9,1.9,0,0,1,1.3-.66,1.42,1.42,0,0,1,1.3.79,2,2,0,0,1,1.47-.8,1.33,1.33,0,0,1,1.06.47,2.09,2.09,0,0,1,.41,1.43v2.61h-.87V37.06a1.33,1.33,0,0,0-.23-.84.75.75,0,0,0-.64-.3A1.37,1.37,0,0,0,51.34,36.47Z"/><path class="cls-1" d="M57.55,35.25a2.3,2.3,0,0,1,1.67.65,2.19,2.19,0,0,1,.67,1.64,2.1,2.1,0,0,1-.68,1.59,2.4,2.4,0,0,1-1.7.63,2.31,2.31,0,0,1-1.66-.64,2.27,2.27,0,0,1,0-3.22A2.37,2.37,0,0,1,57.55,35.25Zm0,.79a1.42,1.42,0,0,0-1,.41,1.49,1.49,0,0,0-.4,1,1.4,1.4,0,0,0,.41,1,1.46,1.46,0,0,0,1.07.4,1.46,1.46,0,0,0,1-2.49A1.49,1.49,0,0,0,57.5,36Z"/><path class="cls-1" d="M63.69,35.26h1l-2,4.5h-.3l-2-4.5h1L62.55,38Z"/><path class="cls-1" d="M65.88,33.4a.49.49,0,0,1,.36.15.47.47,0,0,1,.16.37.46.46,0,0,1-.16.36.49.49,0,0,1-.72,0,.51.51,0,0,1-.15-.36.49.49,0,0,1,.15-.36A.5.5,0,0,1,65.88,33.4Zm-.44,1.86h.88v4.42h-.88Z"/><path class="cls-1" d="M68.58,35.26v.56a1.76,1.76,0,0,1,1.33-.64,1.49,1.49,0,0,1,.77.21,1.34,1.34,0,0,1,.54.59,2.79,2.79,0,0,1,.19,1.17v2.53h-.88V37.16a1.76,1.76,0,0,0-.2-1,.79.79,0,0,0-.7-.29,1.26,1.26,0,0,0-1,.61v3.16h-.89V35.26Z"/><path class="cls-1" d="M72.53,36.79A1.37,1.37,0,0,1,73,35.67a2.25,2.25,0,0,1,1.41-.41h1.82v.68h-.89a2.13,2.13,0,0,1,.36.48,1.15,1.15,0,0,1,.1.5,1.32,1.32,0,0,1-.19.68,1.55,1.55,0,0,1-.51.51,3.12,3.12,0,0,1-1,.28c-.33,0-.49.17-.49.34a.3.3,0,0,0,.18.26,3.51,3.51,0,0,0,.67.2,7.4,7.4,0,0,1,1,.28,1.44,1.44,0,0,1,.42.29,1.06,1.06,0,0,1,.31.79,1.15,1.15,0,0,1-.56,1,2.63,2.63,0,0,1-1.49.37,2.68,2.68,0,0,1-1.51-.37,1.17,1.17,0,0,1-.57-1c0-.59.37-1,1.11-1.15-.29-.19-.44-.38-.44-.56a.54.54,0,0,1,.19-.39,1.22,1.22,0,0,1,.51-.25A1.45,1.45,0,0,1,72.53,36.79ZM74,39.89a1.33,1.33,0,0,0-.72.18.56.56,0,0,0-.28.48q0,.69,1.23.69a2,2,0,0,0,.9-.17.55.55,0,0,0,.32-.49c0-.2-.13-.37-.4-.5A2.43,2.43,0,0,0,74,39.89ZM74.17,36a.81.81,0,0,0-.6.24.76.76,0,0,0-.25.58.74.74,0,0,0,.24.56.87.87,0,0,0,.62.22.89.89,0,0,0,.62-.22.76.76,0,0,0,.24-.57.74.74,0,0,0-.25-.58A.88.88,0,0,0,74.17,36Z"/><path class="cls-1" d="M83.56,36.47v3.21h-.88V37.22a1.93,1.93,0,0,0-.19-1,.77.77,0,0,0-.69-.29,1.06,1.06,0,0,0-.5.12,1.93,1.93,0,0,0-.52.44v3.21H79.9V35.26h.88v.58a1.9,1.9,0,0,1,1.3-.66,1.42,1.42,0,0,1,1.3.79,2,2,0,0,1,1.47-.8,1.33,1.33,0,0,1,1.06.47,2.14,2.14,0,0,1,.41,1.43v2.61h-.87V37.06a1.33,1.33,0,0,0-.23-.84.75.75,0,0,0-.64-.3A1.37,1.37,0,0,0,83.56,36.47Z"/><path class="cls-1" d="M90.47,39.68v-.57a2,2,0,0,1-.64.48,1.72,1.72,0,0,1-.71.17,1.46,1.46,0,0,1-.77-.21,1.35,1.35,0,0,1-.54-.57,2.83,2.83,0,0,1-.18-1.19V35.26h.88v2.52a1.67,1.67,0,0,0,.2,1,.77.77,0,0,0,.69.28,1.32,1.32,0,0,0,1.07-.61V35.26h.87v4.42Z"/><path class="cls-1" d="M92.48,39.36v-.94a3.81,3.81,0,0,0,.76.42,1.7,1.7,0,0,0,.65.16.81.81,0,0,0,.47-.13.4.4,0,0,0,.2-.32.44.44,0,0,0-.13-.32,2.91,2.91,0,0,0-.55-.37,4,4,0,0,1-1.11-.8,1.21,1.21,0,0,1-.26-.73,1,1,0,0,1,.4-.83,1.52,1.52,0,0,1,1-.32,2.86,2.86,0,0,1,1.33.36v.86A2.73,2.73,0,0,0,94,35.93a.77.77,0,0,0-.42.11.34.34,0,0,0-.15.29.42.42,0,0,0,.14.29,2.31,2.31,0,0,0,.5.34l.31.18c.74.41,1.1.87,1.1,1.38a1.1,1.1,0,0,1-.42.89,1.68,1.68,0,0,1-1.09.35,2.43,2.43,0,0,1-.7-.09A4.15,4.15,0,0,1,92.48,39.36Z"/><path class="cls-1" d="M97.06,33.4a.5.5,0,0,1,.37.15.51.51,0,0,1,.16.37.5.5,0,0,1-.16.36.51.51,0,0,1-.37.16.5.5,0,0,1-.35-.16.48.48,0,0,1-.16-.36.46.46,0,0,1,.16-.36A.5.5,0,0,1,97.06,33.4Zm-.43,1.86h.87v4.42h-.87Z"/><path class="cls-1" d="M102.21,38.65v.86a3.56,3.56,0,0,1-1.29.25,2.13,2.13,0,0,1-2.27-2.26,2.38,2.38,0,0,1,.6-1.69,2.09,2.09,0,0,1,1.58-.63,2.8,2.8,0,0,1,.61.06,3.46,3.46,0,0,1,.67.24v.93a2.32,2.32,0,0,0-1.23-.42,1.26,1.26,0,0,0-1,.42,1.51,1.51,0,0,0-.38,1.06,1.42,1.42,0,0,0,.41,1.07,1.53,1.53,0,0,0,1.11.4A3,3,0,0,0,102.21,38.65Z"/><path class="cls-1" d="M113,.75V49H.75V.75H113M113.7,0H0V49.74H113.7V0Z"/></g></g></svg>