<svg xmlns="http://www.w3.org/2000/svg" viewBox="0 0 90 90"><defs><style>.cls-1{fill:#f4f1ed;}</style></defs><g id="Calque_2" data-name="Calque 2"><g id="Calque_4" data-name="Calque 4"><circle class="cls-1" cx="45" cy="45" r="45"/><path d="M31.48,52.3h-1.9l.05-8.46c0-.58.06-1.68.08-1.79l-.08,0c-.07.23-.36,1.21-.52,1.56l-4,8.75H24l-4.12-8.89A6.1,6.1,0,0,1,19.38,42l-.08,0c0,.11.08,1.21.08,1.79l0,8.46h-1.9V38.55h2.07l4.16,9.12c.25.57.65,1.57.77,1.92h0c.11-.35.55-1.35.8-1.92l4.16-9.12h2Z"/><path d="M36.91,40.16v4.2h5.9V46h-5.9v4.72h6.63V52.3H35V38.55h8.52v1.61Z"/><path d="M57.2,52.3H55.13l-5.45-8.62c-.55-.88-1.36-2.32-1.46-2.54l-.11.06a15.71,15.71,0,0,1,.13,2.45l0,8.65H46.39V38.55h2.1L54,47.26a23.83,23.83,0,0,1,1.39,2.5l.13-.06c0-.3-.13-1.32-.13-2.48l0-8.67h1.9Z"/><path d="M71.54,38.55V47a5.47,5.47,0,0,1-10.93,0V38.55H62.5V47c0,2.41,1.46,3.81,3.59,3.81A3.43,3.43,0,0,0,69.65,47V38.55Z"/></g></g></svg>