<svg xmlns="http://www.w3.org/2000/svg" viewBox="0 0 120.77 78.63"><defs><style>.cls-1{fill:#708e88;}</style></defs><g id="Calque_2" data-name="Calque 2"><g id="Calque_1-2" data-name="Calque 1"><path class="cls-1" d="M57.39,13.5C57.39,5.77,52,.22,47.48.22c-1.85,0-4.57,3.05-14.59,3.05C26,3.27,21.24,0,14.71,0,6.86,0,0,15.14,0,22.54c0,1.53.22,2.4.87,2.4,6.32,0,3.6-5.45,11.33-5.45,6.75,0,14.7,3.92,24,3.92A21.93,21.93,0,0,0,48,19.93c-4.79,7-11.87,13.83-18.62,20.58-10.13,10-19.5,19.5-19.5,28.1,0,4.36,1.31,9.8,4.69,9.8,11.43,0,16.33-6.21,16.33-7.3,0-2.17-3.05-1.3-3.05-10.45,0-4.47,5.45-12.42,11.65-20.69C47.81,29.08,57.39,17.64,57.39,13.5Z"/><path class="cls-1" d="M93.22,0C84.83,0,78.84,5,77,12.2c-8.27,6.09-15.9,16-15.9,31.36,0,21,10.89,35.07,29.62,35.07,21,0,30.06-20.37,30.06-40.3C120.77,19,110.53,0,93.22,0ZM91,71.66c-6.75,0-11.65-11.22-11.65-26.57,0-13.29,5-30.61,10.89-35.07,9,1.85,11.54,15.14,11.54,32.67C101.82,58.81,97.57,71.66,91,71.66Z"/><path class="cls-1" d="M39.53,40c-6.2,8.27-11.65,16.22-11.65,20.69,0,9.15,3.05,8.28,3.05,10.45,0,1.09-4.9,7.3-16.33,7.3-3.38,0-4.69-5.44-4.69-9.8,0-8.6,9.37-18.08,19.5-28.1C36.16,33.76,43.24,26.9,48,19.93a21.93,21.93,0,0,1-11.87,3.48c-9.26,0-17.21-3.92-24-3.92-7.73,0-5,5.45-11.33,5.45-.65,0-.87-.87-.87-2.4C0,15.14,6.86,0,14.71,0,21.24,0,26,3.27,32.89,3.27c10,0,12.74-3,14.59-3,4.47,0,9.91,5.55,9.91,13.28C57.39,17.64,47.81,29.08,39.53,40Z"/></g></g></svg>