<svg xmlns="http://www.w3.org/2000/svg" viewBox="0 0 118.27 75.88"><defs><style>.cls-1{fill:#cc9611;}</style></defs><g id="Calque_2" data-name="Calque 2"><g id="Calque_1-2" data-name="Calque 1"><path class="cls-1" d="M35.26,32.53c-7.35,0-12.59,4.41-15.53,11.13v-3C19.73,17,26,5.25,31.9,5.25a6.57,6.57,0,0,1,4.62,1.68,24.44,24.44,0,0,0-2.83,11.65c0,7.13,2.93,10.28,7.66,10.28,7.34,0,10.18-4.51,10.18-5.35-1.05-1.05-3.47-3.78-3.47-9.55A14.51,14.51,0,0,1,52,3.68c.42-.42.42-.85-.53-1a41.13,41.13,0,0,0-10.91.84C38.1,1.37,34.32,0,28.75,0,15.63,0,0,16.06,0,39.67S11.75,75.88,27.7,75.88a26.54,26.54,0,0,0,16-4.85h0a22.13,22.13,0,0,0,6.69-7.89A24.49,24.49,0,0,0,53,52C53,39,46,32.53,35.26,32.53Zm-6.4,37.68c-5.14,0-7.66-6.19-7.66-12.38C21.2,47.75,26,41,29.59,41s7.87,2.73,7.87,14.79C37.46,62.13,33.37,70.21,28.86,70.21Z"/><path class="cls-1" d="M91.72.1C83.64.1,77.87,4.93,76.08,11.86c-8,5.88-15.32,15.43-15.32,30.22,0,20.26,10.49,33.8,28.55,33.8,20.25,0,29-19.63,29-38.83C118.27,18.37,108.41.1,91.72.1Zm-2.1,69.06c-6.51,0-11.23-10.81-11.23-25.6,0-12.81,4.83-29.5,10.5-33.8C97.6,11.54,100,24.35,100,41.25,100,56.78,95.92,69.16,89.62,69.16Z"/><path class="cls-1" d="M35.26,32.53c-7.35,0-12.59,4.41-15.53,11.13v-3C19.73,17,26,5.25,31.9,5.25a6.57,6.57,0,0,1,4.62,1.68,24.44,24.44,0,0,0-2.83,11.65c0,7.13,2.93,10.28,7.66,10.28,7.34,0,10.18-4.51,10.18-5.35-1.05-1.05-3.47-3.78-3.47-9.55A14.51,14.51,0,0,1,52,3.68c.42-.42.42-.85-.53-1a41.13,41.13,0,0,0-10.91.84C38.1,1.37,34.32,0,28.75,0,15.63,0,0,16.06,0,39.67S11.75,75.88,27.7,75.88a26.54,26.54,0,0,0,16-4.85h0a55.39,55.39,0,0,0,6.69-7.89A24.49,24.49,0,0,0,53,52C53,39,46,32.53,35.26,32.53Zm-6.4,37.68c-5.14,0-7.66-6.19-7.66-12.38C21.2,47.75,26,41,29.59,41s7.87,2.73,7.87,14.79C37.46,62.13,33.37,70.21,28.86,70.21Z"/></g></g></svg>