<svg xmlns="http://www.w3.org/2000/svg" viewBox="0 0 123.19 74.22"><defs><style>.cls-1{fill:#768da8;}</style></defs><g id="Calque_2" data-name="Calque 2"><g id="Calque_1-2" data-name="Calque 1"><path class="cls-1" d="M97.8,0c-7.73,0-13.25,4.62-15,11.24C75.22,16.86,68.19,26,68.19,40.14c0,19.37,10,32.31,27.3,32.31,19.36,0,27.7-18.77,27.7-37.13C123.19,17.46,113.75,0,97.8,0Zm-2,66c-6.22,0-10.73-10.34-10.73-24.49,0-12.24,4.61-28.19,10-32.31,8.33,1.71,10.64,14,10.64,30.11C105.73,54.18,101.81,66,95.79,66Z"/><path class="cls-1" d="M29.6,30c-7.92,0-11.54,2.51-14.24,3.51-.61-2.51-.91-9.13,1.09-13.95,5.73,3.51,17.37,6,24,6,6,0,12.65-1.7,12.65-8.93C53.09,12.31,49.47.77,44,.77c-1.3,0-7.22,3.81-13.45,3.81C24,4.58,17.56,1.27,10.94,1.27c-3,0-4,1.51-4,3.71,0,7-.3,20.47-3.2,26.39,0,2.91,4.91,10.64,8,10.64,9.33,0,25.19,1.4,25.19,14,0,8.63-6.12,13.24-14.35,13.24-6.22,0-13.24-2.61-13.24-9.93,0-3.52,3.1-7.53,6.82-7.53,0-3.11-2.72-4.92-5.62-4.92C4.81,46.82,0,53.15,0,58.57,0,70.4,13.44,74.22,23.08,74.22c13.65,0,32.21-8.23,32.21-25.59C55.29,35.08,40.84,30,29.6,30Z"/><path class="cls-1" d="M55.29,48.63c0,17.36-18.56,25.59-32.21,25.59C13.44,74.22,0,70.4,0,58.57c0-5.42,4.81-11.75,10.54-11.75,2.9,0,5.62,1.81,5.62,4.92-3.72,0-6.82,4-6.82,7.53,0,7.32,7,9.93,13.24,9.93,8.23,0,14.35-4.61,14.35-13.24,0-12.55-15.86-14-25.19-14-3.11,0-8-7.73-8-10.64C6.62,25.45,6.92,12,6.92,5c0-2.2,1-3.71,4-3.71,6.62,0,13,3.31,19.56,3.31C36.73,4.58,42.65.77,44,.77c5.52,0,9.14,11.54,9.14,15.85,0,7.23-6.63,8.93-12.65,8.93-6.62,0-18.26-2.51-24-6-2,4.82-1.7,11.44-1.09,13.95,2.7-1,6.32-3.51,14.24-3.51C40.84,30,55.29,35.08,55.29,48.63Z"/></g></g></svg>