<svg xmlns="http://www.w3.org/2000/svg" viewBox="0 0 66.59 66.35"><defs><style>.cls-1{fill:#040404;}</style></defs><g id="Calque_2" data-name="Calque 2"><g id="Calque_2-2" data-name="Calque 2"><path class="cls-1" d="M0,2.21A7.7,7.7,0,0,0,1.06.31c.17-.34.3-.38.64-.22q7,3.42,13.94,6.79c.41.2.44.52.52.86.48,2.27,1,4.55,1.43,6.82.07.39.2.55.63.55q24.2,0,48.37,0v.54a18.67,18.67,0,0,0-.8,3.38c-1.36,6.54-2.69,13.08-4,19.61a.92.92,0,0,0,.35,1.05,10,10,0,0,1,2.2,2.64,5.78,5.78,0,0,1-1.69,8,7.25,7.25,0,0,1-4.38,1.39h-37c-.62,0-1.48.28-1.81-.11s-.1-1.2-.11-1.83a2.8,2.8,0,0,0,0-.41c-.05-.36.11-.49.46-.45a3.84,3.84,0,0,0,.48,0h37.7a4.3,4.3,0,0,0,3.3-1.27,3.14,3.14,0,0,0,.59-3.91,8.47,8.47,0,0,0-.69-1A3.58,3.58,0,0,0,58,41.26c-12.32.06-24.64,0-37,.05-.6,0-.83-.12-1-.75Q16.86,25,13.57,9.43a.89.89,0,0,0-.51-.71L.13,2.49H0ZM63.19,17.92H18.94c-.39,0-.69-.07-.56.54q2.09,9.62,4.12,19.24c.13.62.34.78.95.78q17.36,0,34.71,0c.7,0,.85-.26,1-.83.59-3,1.21-5.92,1.82-8.88C61.69,25.17,62.43,21.58,63.19,17.92Z"/><path class="cls-1" d="M55.18,66.35a11.69,11.69,0,0,1-2.35-1.23,5.13,5.13,0,0,1-1.76-5.41,5.36,5.36,0,0,1,9.64-1.64,5.25,5.25,0,0,1-3.37,8.15c-.1,0-.23,0-.26.13Zm1.07-2.82a2.54,2.54,0,0,0,2.56-2.65,2.46,2.46,0,0,0-2.57-2.39,2.52,2.52,0,1,0,0,5Z"/><path class="cls-1" d="M26.37,66.35A9.6,9.6,0,0,1,23.83,65a5.14,5.14,0,0,1-1.66-5.38,5,5,0,0,1,4.36-3.89,5.32,5.32,0,0,1,6.2,5.15,5.38,5.38,0,0,1-4.33,5.31c-.11,0-.24,0-.27.13Zm.94-2.83A2.52,2.52,0,1,0,24.79,61,2.53,2.53,0,0,0,27.31,63.52Z"/></g></g></svg>